RobotoExtremo-opsz144-wght100-wdth151-slnt-10.ufo
<glyph name="exclam" format="2">
  <advance width="548"/>
  <unicode hex="0021"/>
  <outline>
    <contour>
      <point x="123" y="23" type="qcurve" smooth="yes"/>
      <point x="125" y="34"/>
      <point x="140" y="48"/>
      <point x="153" y="48" type="qcurve" smooth="yes"/>
      <point x="166" y="48"/>
      <point x="177" y="34"/>
      <point x="175" y="22" type="qcurve" smooth="yes"/>
      <point x="173" y="11"/>
      <point x="156" y="-3"/>
      <point x="143" y="-3" type="qcurve" smooth="yes"/>
      <point x="131" y="-3"/>
      <point x="121" y="11"/>
    </contour>
    <contour>
      <point x="209" y="394" type="line"/>
      <point x="396" y="1456" type="line"/>
      <point x="408" y="1456" type="line"/>
      <point x="219" y="394" type="line"/>
    </contour>
  </outline>
</glyph>
<glyph name="dollar" format="2">
  <advance width="1298"/>
  <unicode hex="0024"/>
  <outline>
    <contour>
      <point x="44" y="381" type="qcurve" smooth="yes"/>
      <point x="46" y="406" type="line"/>
      <point x="56" y="406" type="line"/>
      <point x="55" y="390" type="line"/>
      <point x="43" y="163"/>
      <point x="286" y="-15"/>
      <point x="547" y="-14" type="qcurve" smooth="yes"/>
      <point x="801" y="-13"/>
      <point x="1090" y="177"/>
      <point x="1120" y="348" type="qcurve" smooth="yes"/>
      <point x="1152" y="526"/>
      <point x="982" y="696"/>
      <point x="682" y="756" type="qcurve" smooth="yes"/>
      <point x="378" y="817"/>
      <point x="180" y="987"/>
      <point x="206" y="1135" type="qcurve" smooth="yes"/>
      <point x="236" y="1303"/>
      <point x="518" y="1480"/>
      <point x="765" y="1480" type="qcurve" smooth="yes"/>
      <point x="1022" y="1480"/>
      <point x="1223" y="1266"/>
      <point x="1208" y="1112" type="qcurve" smooth="yes"/>
      <point x="1205" y="1086" type="line"/>
      <point x="1194" y="1086" type="line"/>
      <point x="1196" y="1107" type="line"/>
      <point x="1211" y="1260"/>
      <point x="1014" y="1470"/>
      <point x="762" y="1470" type="qcurve" smooth="yes"/>
      <point x="521" y="1470"/>
      <point x="244" y="1295"/>
      <point x="216" y="1135" type="qcurve" smooth="yes"/>
      <point x="191" y="990"/>
      <point x="392" y="825"/>
      <point x="687" y="766" type="qcurve" smooth="yes"/>
      <point x="997" y="704"/>
      <point x="1162" y="528"/>
      <point x="1130" y="348" type="qcurve" smooth="yes"/>
      <point x="1099" y="170"/>
      <point x="805" y="-24"/>
      <point x="545" y="-24" type="qcurve" smooth="yes"/>
      <point x="271" y="-24"/>
      <point x="32" y="166"/>
    </contour>
    <contour>
      <point x="487" y="-150" type="line"/>
      <point x="641" y="728" type="line"/>
      <point x="650" y="728" type="line"/>
      <point x="519" y="-17" type="line"/>
      <point x="518" y="-21" type="line"/>
      <point x="496" y="-150" type="line"/>
    </contour>
    <contour>
      <point x="641" y="728" type="line"/>
      <point x="773" y="1473" type="line"/>
      <point x="773" y="1477" type="line"/>
      <point x="796" y="1606" type="line"/>
      <point x="805" y="1606" type="line"/>
      <point x="650" y="728" type="line"/>
    </contour>
  </outline>
</glyph>
<glyph name="ampersand" format="2">
  <advance width="1334"/>
  <unicode hex="0026"/>
  <outline>
    <contour>
      <point x="40" y="334" type="qcurve" smooth="yes"/>
      <point x="61" y="453"/>
      <point x="223" y="627"/>
      <point x="366" y="702" type="qcurve" smooth="yes"/>
      <point x="679" y="866" type="line" smooth="yes"/>
      <point x="816" y="938"/>
      <point x="1009" y="1099"/>
      <point x="1027" y="1204" type="qcurve" smooth="yes"/>
      <point x="1047" y="1315"/>
      <point x="887" y="1476"/>
      <point x="738" y="1476" type="qcurve" smooth="yes"/>
      <point x="582" y="1476"/>
      <point x="350" y="1287"/>
      <point x="326" y="1153" type="qcurve" smooth="yes"/>
      <point x="312" y="1072"/>
      <point x="377" y="902"/>
      <point x="484" y="789" type="qcurve" smooth="yes"/>
      <point x="1235" y="0" type="line"/>
      <point x="1219" y="0" type="line"/>
      <point x="506" y="748" type="line" smooth="yes"/>
      <point x="380" y="880"/>
      <point x="300" y="1061"/>
      <point x="316" y="1153" type="qcurve" smooth="yes"/>
      <point x="341" y="1292"/>
      <point x="576" y="1486"/>
      <point x="740" y="1486" type="qcurve" smooth="yes"/>
      <point x="894" y="1486"/>
      <point x="1058" y="1321"/>
      <point x="1037" y="1205" type="qcurve" smooth="yes"/>
      <point x="1018" y="1093"/>
      <point x="824" y="932"/>
      <point x="683" y="858" type="qcurve" smooth="yes"/>
      <point x="375" y="696" type="line" smooth="yes"/>
      <point x="229" y="620"/>
      <point x="70" y="448"/>
      <point x="50" y="336" type="qcurve" smooth="yes"/>
      <point x="25" y="195"/>
      <point x="230" y="-10"/>
      <point x="463" y="-10" type="qcurve" smooth="yes"/>
      <point x="791" y="-10"/>
      <point x="1209" y="362"/>
      <point x="1264" y="674" type="qcurve"/>
      <point x="1275" y="674" type="line"/>
      <point x="1219" y="357"/>
      <point x="794" y="-20"/>
      <point x="461" y="-20" type="qcurve" smooth="yes"/>
      <point x="220" y="-20"/>
      <point x="15" y="190"/>
    </contour>
  </outline>
</glyph>
<glyph name="parenright" format="2">
  <advance width="827"/>
  <unicode hex="0029"/>
  <outline>
    <contour>
      <point x="-134" y="-436" type="qcurve"/>
      <point x="-132" y="-424" type="line"/>
      <point x="107" y="-350"/>
      <point x="553" y="156"/>
      <point x="615" y="510" type="qcurve" smooth="yes"/>
      <point x="618" y="530" type="line" smooth="yes"/>
      <point x="681" y="884"/>
      <point x="414" y="1390"/>
      <point x="201" y="1464" type="qcurve"/>
      <point x="203" y="1476" type="line"/>
      <point x="426" y="1397"/>
      <point x="693" y="888"/>
      <point x="628" y="523" type="qcurve" smooth="yes"/>
      <point x="627" y="514" type="line" smooth="yes"/>
      <point x="562" y="149"/>
      <point x="117" y="-357"/>
    </contour>
  </outline>
</glyph>
<glyph name="plus" format="2">
  <advance width="1170"/>
  <unicode hex="002B"/>
  <outline>
    <contour>
      <point x="148" y="699" type="line"/>
      <point x="150" y="709" type="line"/>
      <point x="1012" y="709" type="line"/>
      <point x="1010" y="699" type="line"/>
    </contour>
    <contour>
      <point x="493" y="238" type="line"/>
      <point x="657" y="1170" type="line"/>
      <point x="667" y="1170" type="line"/>
      <point x="503" y="238" type="line"/>
    </contour>
  </outline>
</glyph>
<glyph name="slash" format="2">
  <advance width="739"/>
  <unicode hex="002F"/>
  <outline>
    <contour>
      <point x="-241" y="-125" type="line"/>
      <point x="842" y="1456" type="line"/>
      <point x="855" y="1456" type="line"/>
      <point x="-229" y="-125" type="line"/>
    </contour>
  </outline>
</glyph>
<glyph name="four" format="2">
  <advance width="1463"/>
  <unicode hex="0034"/>
  <outline>
    <contour>
      <point x="937" y="0" type="line"/>
      <point x="1006" y="391" type="line"/>
      <point x="1008" y="405" type="line"/>
      <point x="1190" y="1435" type="line"/>
      <point x="1188" y="1435" type="line"/>
      <point x="130" y="402" type="line"/>
      <point x="1011" y="402" type="line"/>
      <point x="1016" y="402" type="line"/>
      <point x="1212" y="402" type="line"/>
      <point x="1210" y="392" type="line"/>
      <point x="111" y="392" type="line"/>
      <point x="113" y="400" type="line"/>
      <point x="1198" y="1456" type="line"/>
      <point x="1204" y="1456" type="line"/>
      <point x="947" y="0" type="line"/>
    </contour>
  </outline>
</glyph>
<glyph name="five" format="2">
  <advance width="1463"/>
  <unicode hex="0035"/>
  <outline>
    <contour>
      <point x="151" y="367" type="qcurve" smooth="yes"/>
      <point x="154" y="387" type="line"/>
      <point x="165" y="387" type="line"/>
      <point x="162" y="367" type="line" smooth="yes"/>
      <point x="132" y="199"/>
      <point x="370" y="-14"/>
      <point x="615" y="-14" type="qcurve" smooth="yes"/>
      <point x="848" y="-14"/>
      <point x="1190" y="226"/>
      <point x="1231" y="462" type="qcurve" smooth="yes"/>
      <point x="1271" y="687"/>
      <point x="1026" y="904"/>
      <point x="831" y="904" type="qcurve" smooth="yes"/>
      <point x="654" y="904"/>
      <point x="381" y="783"/>
      <point x="294" y="710" type="qcurve"/>
      <point x="284" y="714" type="line"/>
      <point x="515" y="1455" type="line"/>
      <point x="1332" y="1455" type="line"/>
      <point x="1330" y="1444" type="line"/>
      <point x="520" y="1444" type="line"/>
      <point x="299" y="727" type="line"/>
      <point x="381" y="792"/>
      <point x="652" y="913"/>
      <point x="832" y="913" type="qcurve" smooth="yes"/>
      <point x="1035" y="913"/>
      <point x="1283" y="691"/>
      <point x="1242" y="462" type="qcurve" smooth="yes"/>
      <point x="1200" y="221"/>
      <point x="852" y="-24"/>
      <point x="613" y="-24" type="qcurve" smooth="yes"/>
      <point x="363" y="-24"/>
      <point x="120" y="195"/>
    </contour>
  </outline>
</glyph>
<glyph name="seven" format="2">
  <advance width="1463"/>
  <unicode hex="0037"/>
  <outline>
    <contour>
      <point x="305" y="0" type="line"/>
      <point x="1343" y="1446" type="line"/>
      <point x="305" y="1446" type="line"/>
      <point x="307" y="1456" type="line"/>
      <point x="1358" y="1456" type="line"/>
      <point x="1356" y="1449" type="line"/>
      <point x="320" y="0" type="line"/>
    </contour>
  </outline>
</glyph>
<glyph name="nine" format="2">
  <advance width="1463"/>
  <unicode hex="0039"/>
  <outline>
    <contour>
      <point x="223" y="998" type="qcurve" smooth="yes"/>
      <point x="260" y="1208"/>
      <point x="619" y="1476"/>
      <point x="873" y="1476" type="qcurve" smooth="yes"/>
      <point x="1114" y="1476"/>
      <point x="1369" y="1156"/>
      <point x="1313" y="839" type="qcurve" smooth="yes"/>
      <point x="1308" y="809" type="line" smooth="yes"/>
      <point x="1242" y="435"/>
      <point x="678" y="-23"/>
      <point x="286" y="-23" type="qcurve" smooth="yes"/>
      <point x="249" y="-23" type="line"/>
      <point x="251" y="-11" type="line"/>
      <point x="288" y="-11" type="line" smooth="yes"/>
      <point x="675" y="-11"/>
      <point x="1232" y="439"/>
      <point x="1299" y="819" type="qcurve" smooth="yes"/>
      <point x="1303" y="839" type="line" smooth="yes"/>
      <point x="1358" y="1151"/>
      <point x="1105" y="1468"/>
      <point x="872" y="1468" type="qcurve" smooth="yes"/>
      <point x="623" y="1468"/>
      <point x="269" y="1205"/>
      <point x="233" y="998" type="qcurve" smooth="yes"/>
      <point x="198" y="801"/>
      <point x="432" y="560"/>
      <point x="663" y="560" type="qcurve" smooth="yes"/>
      <point x="895" y="560"/>
      <point x="1281" y="838"/>
      <point x="1319" y="1055" type="qcurve"/>
      <point x="1329" y="1055" type="line"/>
      <point x="1290" y="835"/>
      <point x="902" y="549"/>
      <point x="662" y="549" type="qcurve" smooth="yes"/>
      <point x="426" y="549"/>
      <point x="187" y="796"/>
    </contour>
  </outline>
</glyph>
<glyph name="greater" format="2">
  <advance width="1170"/>
  <unicode hex="003E"/>
  <outline>
    <contour>
      <point x="98" y="246" type="line"/>
      <point x="101" y="259" type="line"/>
      <point x="960" y="674" type="line"/>
      <point x="247" y="1089" type="line"/>
      <point x="249" y="1102" type="line"/>
      <point x="976" y="679" type="line"/>
      <point x="974" y="669" type="line"/>
    </contour>
  </outline>
</glyph>
<glyph name="question" format="2">
  <advance width="1076"/>
  <unicode hex="003F"/>
  <outline>
    <contour>
      <point x="372" y="23" type="qcurve" smooth="yes"/>
      <point x="374" y="34"/>
      <point x="389" y="48"/>
      <point x="402" y="48" type="qcurve" smooth="yes"/>
      <point x="415" y="48"/>
      <point x="426" y="34"/>
      <point x="424" y="22" type="qcurve" smooth="yes"/>
      <point x="422" y="11"/>
      <point x="405" y="-3"/>
      <point x="392" y="-3" type="qcurve" smooth="yes"/>
      <point x="380" y="-3"/>
      <point x="370" y="11"/>
    </contour>
    <contour>
      <point x="126" y="1076" type="line"/>
      <point x="135" y="1130" type="line" smooth="yes"/>
      <point x="162" y="1279"/>
      <point x="474" y="1480"/>
      <point x="687.0" y="1480.0" type="qcurve" smooth="yes"/>
      <point x="918" y="1480"/>
      <point x="1109" y="1318"/>
      <point x="1088" y="1160" type="qcurve" smooth="yes"/>
      <point x="1068" y="1006"/>
      <point x="881" y="860"/>
      <point x="748" y="797" type="qcurve" smooth="yes"/>
      <point x="614" y="734"/>
      <point x="483" y="513"/>
      <point x="464" y="405" type="qcurve" smooth="yes"/>
      <point x="456" y="355" type="line"/>
      <point x="446" y="355" type="line"/>
      <point x="454" y="405" type="line" smooth="yes"/>
      <point x="475" y="519"/>
      <point x="608" y="742"/>
      <point x="744" y="806" type="qcurve" smooth="yes"/>
      <point x="880" y="870"/>
      <point x="1057" y="1009"/>
      <point x="1077" y="1159" type="qcurve" smooth="yes"/>
      <point x="1097" y="1311"/>
      <point x="908" y="1470"/>
      <point x="685.0" y="1470.0" type="qcurve" smooth="yes"/>
      <point x="479" y="1470"/>
      <point x="170" y="1273"/>
      <point x="143" y="1118" type="qcurve" smooth="yes"/>
      <point x="136" y="1076" type="line"/>
    </contour>
  </outline>
</glyph>
<glyph name="at" format="2">
  <advance width="2078"/>
  <unicode hex="0040"/>
  <outline>
    <contour>
      <point x="632" y="400" type="qcurve" smooth="yes"/>
      <point x="681" y="680"/>
      <point x="1004" y="1052"/>
      <point x="1194" y="1052" type="qcurve" smooth="yes"/>
      <point x="1281" y="1052"/>
      <point x="1399" y="977"/>
      <point x="1426" y="944" type="qcurve"/>
      <point x="1439" y="946" type="line"/>
      <point x="1206" y="350" type="line" smooth="yes"/>
      <point x="1139" y="185"/>
      <point x="1237" y="11"/>
      <point x="1368" y="11" type="qcurve" smooth="yes"/>
      <point x="1554" y="11"/>
      <point x="1864" y="366"/>
      <point x="1914" y="650" type="qcurve" smooth="yes"/>
      <point x="1975" y="996"/>
      <point x="1613" y="1476"/>
      <point x="1223" y="1476" type="qcurve" smooth="yes"/>
      <point x="804" y="1476"/>
      <point x="189" y="875"/>
      <point x="116" y="460" type="qcurve" smooth="yes"/>
      <point x="43" y="43"/>
      <point x="417" y="-436"/>
      <point x="801" y="-436" type="qcurve" smooth="yes"/>
      <point x="946" y="-436"/>
      <point x="1143" y="-382"/>
      <point x="1221" y="-346" type="qcurve"/>
      <point x="1219" y="-356" type="line"/>
      <point x="1143" y="-390"/>
      <point x="947" y="-446"/>
      <point x="799" y="-446" type="qcurve" smooth="yes"/>
      <point x="410" y="-446"/>
      <point x="32" y="40"/>
      <point x="106" y="460" type="qcurve" smooth="yes"/>
      <point x="180" y="880"/>
      <point x="800" y="1486"/>
      <point x="1225" y="1486" type="qcurve" smooth="yes"/>
      <point x="1621" y="1486"/>
      <point x="1985" y="1000"/>
      <point x="1924" y="650" type="qcurve" smooth="yes"/>
      <point x="1872" y="360"/>
      <point x="1556" y="0"/>
      <point x="1363" y="0" type="qcurve" smooth="yes"/>
      <point x="1246" y="0"/>
      <point x="1133" y="153"/>
      <point x="1176" y="298" type="qcurve"/>
      <point x="1112" y="171"/>
      <point x="910" y="0"/>
      <point x="819" y="0" type="qcurve" smooth="yes"/>
      <point x="696" y="0"/>
      <point x="598" y="209"/>
    </contour>
    <contour>
      <point x="642" y="400" type="qcurve" smooth="yes"/>
      <point x="609" y="213"/>
      <point x="704" y="10"/>
      <point x="823" y="10" type="qcurve" smooth="yes"/>
      <point x="919" y="10"/>
      <point x="1140" y="213"/>
      <point x="1211" y="396" type="qcurve" smooth="yes"/>
      <point x="1421" y="934" type="line"/>
      <point x="1384" y="972"/>
      <point x="1275" y="1042"/>
      <point x="1194" y="1042" type="qcurve" smooth="yes"/>
      <point x="1009" y="1042"/>
      <point x="690" y="675"/>
    </contour>
  </outline>
</glyph>
<glyph name="I" format="2">
  <advance width="498"/>
  <unicode hex="0049"/>
  <outline>
    <contour>
      <point x="115" y="0" type="line"/>
      <point x="372" y="1456" type="line"/>
      <point x="382" y="1456" type="line"/>
      <point x="125" y="0" type="line"/>
    </contour>
  </outline>
</glyph>
<glyph name="underscore" format="2">
  <advance width="1000"/>
  <unicode hex="005F"/>
  <outline>
    <contour>
      <point x="-162" y="-186" type="line"/>
      <point x="-160" y="-176" type="line"/>
      <point x="840" y="-176" type="line"/>
      <point x="838" y="-186" type="line"/>
    </contour>
  </outline>
</glyph>
<glyph name="o" format="2">
  <advance width="1291"/>
  <unicode hex="006F"/>
  <outline>
    <contour>
      <point x="31" y="452" type="qcurve" smooth="yes"/>
      <point x="33" y="463" type="line" smooth="yes"/>
      <point x="73" y="691"/>
      <point x="420" y="944"/>
      <point x="682" y="944" type="qcurve" smooth="yes"/>
      <point x="947" y="944"/>
      <point x="1204" y="691"/>
      <point x="1163" y="461" type="qcurve" smooth="yes"/>
      <point x="1161" y="446" type="line" smooth="yes"/>
      <point x="1120" y="216"/>
      <point x="764" y="-30"/>
      <point x="511" y="-30" type="qcurve" smooth="yes"/>
      <point x="258" y="-30"/>
      <point x="-11" y="218"/>
    </contour>
    <contour>
      <point x="43" y="460" type="qcurve" smooth="yes"/>
      <point x="42" y="454" type="line" smooth="yes"/>
      <point x="2" y="225"/>
      <point x="265" y="-21"/>
      <point x="513" y="-21" type="qcurve" smooth="yes"/>
      <point x="756" y="-21"/>
      <point x="1110" y="222"/>
      <point x="1150" y="450" type="qcurve" smooth="yes"/>
      <point x="1152" y="457" type="line" smooth="yes"/>
      <point x="1191" y="681"/>
      <point x="937" y="935"/>
      <point x="681" y="935" type="qcurve" smooth="yes"/>
      <point x="426" y="935"/>
      <point x="82" y="681"/>
    </contour>
  </outline>
</glyph>
<glyph name="asciitilde" format="2">
  <advance width="1270"/>
  <unicode hex="007E"/>
  <guideline x="198" y="766" angle="90" identifier="JLypGvYgHz"/>
  <guideline x="1071" y="666" angle="90" identifier="YGOzq627v6"/>
  <outline>
    <contour>
      <point x="183" y="644" type="qcurve"/>
      <point x="185" y="659" type="line"/>
      <point x="240" y="712"/>
      <point x="342" y="762"/>
      <point x="398" y="762" type="qcurve" smooth="yes"/>
      <point x="446" y="762"/>
      <point x="558" y="726"/>
      <point x="626" y="694" type="qcurve" smooth="yes"/>
      <point x="700" y="659"/>
      <point x="810" y="626"/>
      <point x="859" y="626" type="qcurve" smooth="yes"/>
      <point x="919" y="626"/>
      <point x="1025" y="677"/>
      <point x="1071" y="731" type="qcurve"/>
      <point x="1068" y="715" type="line"/>
      <point x="1023" y="665"/>
      <point x="918" y="617"/>
      <point x="858" y="617" type="qcurve" smooth="yes"/>
      <point x="809" y="617"/>
      <point x="691" y="651"/>
      <point x="626" y="682" type="qcurve" smooth="yes"/>
      <point x="567" y="711"/>
      <point x="445" y="753"/>
      <point x="397" y="753" type="qcurve" smooth="yes"/>
      <point x="341" y="753"/>
      <point x="243" y="704"/>
    </contour>
  </outline>
</glyph>
<glyph name="hungarumlaut" format="2">
  <advance width="1024"/>
  <unicode hex="02DD"/>
  <guideline x="0.0" y="901.0" angle="0.0" identifier="1emCWSQy5G"/>
  <guideline x="0.0" y="555.0" angle="0.0" identifier="s1MFYmxmed"/>
  <outline>
    <contour>
      <point x="302" y="984" type="line"/>
      <point x="581" y="1260" type="line"/>
      <point x="589" y="1253" type="line"/>
      <point x="308" y="978" type="line"/>
    </contour>
    <contour>
      <point x="572" y="984" type="line"/>
      <point x="851" y="1260" type="line"/>
      <point x="859" y="1253" type="line"/>
      <point x="578" y="978" type="line"/>
    </contour>
  </outline>
</glyph>
<glyph name="hookabovecomb" format="2">
  <advance width="1024"/>
  <unicode hex="0309"/>
  <outline>
    <contour>
      <point x="427" y="957.0" type="line"/>
      <point x="427" y="1026.0" type="line" smooth="yes"/>
      <point x="427" y="1036.0"/>
      <point x="437" y="1045.0"/>
      <point x="451" y="1046.0" type="qcurve" smooth="yes"/>
      <point x="600" y="1052.0"/>
      <point x="717" y="1127.0"/>
      <point x="717" y="1187.0" type="qcurve" smooth="yes"/>
      <point x="717" y="1253.0"/>
      <point x="618" y="1325.0"/>
      <point x="525" y="1325.0" type="qcurve" smooth="yes"/>
      <point x="449" y="1325.0"/>
      <point x="313" y="1296.0"/>
      <point x="280" y="1280.0" type="qcurve"/>
      <point x="274" y="1289.0" type="line"/>
      <point x="311" y="1305.0"/>
      <point x="450" y="1335.0"/>
      <point x="526" y="1335.0" type="qcurve" smooth="yes"/>
      <point x="623" y="1335.0"/>
      <point x="728" y="1258.0"/>
      <point x="728" y="1186.0" type="qcurve" smooth="yes"/>
      <point x="728" y="1122.0"/>
      <point x="601" y="1041.0"/>
      <point x="438" y="1035.0" type="qcurve"/>
      <point x="438" y="957.0" type="line"/>
    </contour>
  </outline>
</glyph>
<glyph name="breveinvertedcomb" format="2">
  <advance width="1024"/>
  <unicode hex="030F"/>
  <outline>
    <contour>
      <point x="253" y="964" type="qcurve"/>
      <point x="246" y="968" type="line"/>
      <point x="291" y="1095"/>
      <point x="417" y="1209"/>
      <point x="512" y="1209" type="qcurve" smooth="yes"/>
      <point x="607" y="1209"/>
      <point x="733" y="1095"/>
      <point x="778" y="968" type="qcurve"/>
      <point x="771" y="964" type="line"/>
      <point x="725" y="1087"/>
      <point x="603" y="1198"/>
      <point x="512" y="1198" type="qcurve" smooth="yes"/>
      <point x="421" y="1198"/>
      <point x="299" y="1087"/>
    </contour>
  </outline>
</glyph>
<glyph name="jdotless" format="2">
  <advance width="411"/>
  <outline>
    <contour>
      <point x="-149" y="-403" type="qcurve"/>
      <point x="-149" y="-390" type="line"/>
      <point x="-118" y="-407"/>
      <point x="-42" y="-426"/>
      <point x="13" y="-426" type="qcurve" smooth="yes"/>
      <point x="100" y="-426"/>
      <point x="213" y="-302.0"/>
      <point x="213" y="-146" type="qcurve" smooth="yes"/>
      <point x="213" y="914" type="line"/>
      <point x="222" y="914" type="line"/>
      <point x="222" y="-156" type="line" smooth="yes"/>
      <point x="222" y="-309.0"/>
      <point x="105" y="-436"/>
      <point x="14" y="-436" type="qcurve" smooth="yes"/>
      <point x="-44" y="-436"/>
      <point x="-123" y="-416"/>
    </contour>
  </outline>
</glyph>
<glyph name="tildecomb.case" format="2">
  <advance width="1024"/>
  <outline>
    <contour>
      <point x="173" y="1643.0" type="line"/>
      <point x="214" y="1689.0"/>
      <point x="316" y="1740.0"/>
      <point x="378" y="1740.0" type="qcurve" smooth="yes"/>
      <point x="421" y="1740.0"/>
      <point x="505" y="1708.0"/>
      <point x="542" y="1690.0" type="qcurve" smooth="yes"/>
      <point x="581" y="1672.0"/>
      <point x="653" y="1646.0"/>
      <point x="692" y="1646.0" type="qcurve" smooth="yes"/>
      <point x="750" y="1646.0"/>
      <point x="837" y="1683.0"/>
      <point x="874" y="1730.0" type="qcurve"/>
      <point x="880" y="1723.0" type="line"/>
      <point x="841" y="1675.0"/>
      <point x="752" y="1636.0"/>
      <point x="691" y="1636.0" type="qcurve" smooth="yes"/>
      <point x="650" y="1636.0"/>
      <point x="570" y="1666.0"/>
      <point x="538" y="1681.0" type="qcurve" smooth="yes"/>
      <point x="502" y="1698.0"/>
      <point x="417" y="1730.0"/>
      <point x="377" y="1730.0" type="qcurve" smooth="yes"/>
      <point x="313" y="1730.0"/>
      <point x="216" y="1679.0"/>
      <point x="179" y="1636.0" type="qcurve"/>
    </contour>
  </outline>
</glyph>
